<svg version="1.1" viewBox="0.0 0.0 636.0 232.0" fill="none" stroke="none" stroke-linecap="square" stroke-miterlimit="10" xmlns:xlink="http://www.w3.org/1999/xlink" xmlns="http://www.w3.org/2000/svg"><clipPath id="p.0"><path d="m0 0l636.0 0l0 232.0l-636.0 0l0 -232.0z" clip-rule="nonzero"/></clipPath><g clip-path="url(#p.0)"><path fill="#000000" fill-opacity="0.0" d="m0 0l636.0 0l0 232.0l-636.0 0z" fill-rule="evenodd"/><path fill="#000000" fill-opacity="0.0" d="m525.2913 6.0l-0.9133911 126.74016" fill-rule="evenodd"/><path stroke="#000000" stroke-width="8.0" stroke-linejoin="round" stroke-linecap="butt" d="m525.0728 36.31921l-0.4763794 66.10173" fill-rule="evenodd"/><path stroke="#000000" stroke-width="8.0" stroke-linecap="butt" d="m525.2625 9.999896c7.2678833 0.0523777 13.1171875 5.986618 13.064819 13.254497c-0.052368164 7.2678776 -5.9866333 13.117197 -13.254517 13.064817c-7.2678833 -0.052375793 -13.1171875 -5.986616 -13.064819 -13.254496c0.052368164 -7.2678776 5.9866333 -13.117196 13.254517 -13.064818z" fill-rule="nonzero"/><path stroke="#000000" stroke-width="8.0" stroke-linecap="butt" d="m524.4068 128.74026c-7.2678833 -0.052383423 -13.117218 -5.986618 -13.06485 -13.254501c0.05239868 -7.2678757 5.986603 -13.117195 13.254486 -13.064819c7.2678833 0.052383423 13.1171875 5.986618 13.064819 13.254501c-0.052368164 7.2678757 -5.9865723 13.1171875 -13.254456 13.064819z" fill-rule="nonzero"/><path fill="#000000" fill-opacity="0.0" d="m525.2913 97.997375l-0.9133911 126.74016" fill-rule="evenodd"/><path stroke="#000000" stroke-width="8.0" stroke-linejoin="round" stroke-linecap="butt" d="m525.0728 128.31659l-0.4763794 66.101746" fill-rule="evenodd"/><path stroke="#000000" stroke-width="8.0" stroke-linecap="butt" d="m525.2625 101.99727c7.2678833 0.052383423 13.1171875 5.986618 13.064819 13.254501c-0.052368164 7.2678757 -5.9866333 13.1171875 -13.254517 13.064819c-7.2678833 -0.052383423 -13.1171875 -5.986618 -13.064819 -13.254501c0.052368164 -7.2678757 5.9866333 -13.117195 13.254517 -13.064819z" fill-rule="nonzero"/><path stroke="#000000" stroke-width="8.0" stroke-linecap="butt" d="m524.4068 220.73764c-7.2678833 -0.052383423 -13.117218 -5.986618 -13.06485 -13.254501c0.05239868 -7.2678833 5.986603 -13.117203 13.254486 -13.064819c7.2678833 0.052383423 13.1171875 5.986618 13.064819 13.254501c-0.052368164 7.267868 -5.9865723 13.1171875 -13.254456 13.064819z" fill-rule="nonzero"/><path fill="#000000" fill-opacity="0.0" d="m381.29135 6.0l-0.9133911 126.74016" fill-rule="evenodd"/><path stroke="#000000" stroke-width="8.0" stroke-linejoin="round" stroke-linecap="butt" d="m381.07285 36.31921l-0.4763794 66.10173" fill-rule="evenodd"/><path stroke="#000000" stroke-width="8.0" stroke-linecap="butt" d="m381.2625 9.999896c7.2678833 0.0523777 13.1171875 5.986618 13.064819 13.254497c-0.052368164 7.2678776 -5.986603 13.117197 -13.254486 13.064817c-7.2678833 -0.052375793 -13.117218 -5.986616 -13.064819 -13.254496c0.052368164 -7.2678776 5.986603 -13.117196 13.254486 -13.064818z" fill-rule="nonzero"/><path stroke="#000000" stroke-width="8.0" stroke-linecap="butt" d="m380.40677 128.74026c-7.267853 -0.052383423 -13.1171875 -5.986618 -13.064819 -13.254501c0.05239868 -7.2678757 5.9866333 -13.117195 13.254517 -13.064819c7.2678833 0.052383423 13.1171875 5.986618 13.064819 13.254501c-0.05239868 7.2678757 -5.9866333 13.1171875 -13.254517 13.064819z" fill-rule="nonzero"/><path fill="#000000" fill-opacity="0.0" d="m363.87402 22.740158l111.1181 0.062992096" fill-rule="evenodd"/><path stroke="#000000" stroke-width="8.0" stroke-linejoin="round" stroke-linecap="butt" d="m394.19403 22.757345l50.47809 0.028615952" fill-rule="evenodd"/><path stroke="#000000" stroke-width="8.0" stroke-linecap="butt" d="m367.87402 22.742426c0.004119873 -7.2680664 5.8993835 -13.156658 13.16745 -13.152537c7.2680664 0.004119873 13.156647 5.899391 13.152527 13.167457c-0.004119873 7.2680664 -5.8993835 13.156656 -13.16745 13.152536c-7.2680664 -0.004119873 -13.156647 -5.899391 -13.152527 -13.167456z" fill-rule="nonzero"/><path stroke="#000000" stroke-width="8.0" stroke-linecap="butt" d="m470.99213 22.800882c-0.004119873 7.2680664 -5.8993835 13.156656 -13.16745 13.152536c-7.2680664 -0.004119873 -13.156677 -5.899391 -13.152557 -13.167458c0.004119873 -7.2680655 5.899414 -13.156657 13.16748 -13.152536c7.2680664 0.004119873 13.156647 5.899391 13.152527 13.167458z" fill-rule="nonzero"/><path fill="#000000" fill-opacity="0.0" d="m363.87402 115.48819l90.14172 -1.7007904" fill-rule="evenodd"/><path stroke="#000000" stroke-width="8.0" stroke-linejoin="round" stroke-linecap="butt" d="m394.1886 114.916214l29.512543 -0.556839" fill-rule="evenodd"/><path stroke="#000000" stroke-width="8.0" stroke-linecap="butt" d="m367.8733 115.41273c-0.13708496 -7.2667694 5.642639 -13.268806 12.909424 -13.405914c7.266754 -0.13710785 13.268799 5.6426315 13.405914 12.909401c0.13708496 7.266777 -5.642639 13.268814 -12.909424 13.405914c-7.266754 0.13711548 -13.268799 -5.642624 -13.405914 -12.909401z" fill-rule="nonzero"/><path stroke="#000000" stroke-width="8.0" stroke-linecap="butt" d="m450.01645 113.86286c0.13711548 7.2667694 -5.6426086 13.268806 -12.909393 13.405914c-7.266754 0.13710785 -13.268799 -5.642624 -13.405914 -12.909401c-0.13711548 -7.266777 5.642639 -13.268806 12.909393 -13.405914c7.2667847 -0.13710785 13.268829 5.642624 13.405914 12.909401z" fill-rule="nonzero"/><path fill="#000000" fill-opacity="0.0" d="m381.29135 97.997375l-0.9133911 126.74016" fill-rule="evenodd"/><path stroke="#000000" stroke-width="8.0" stroke-linejoin="round" stroke-linecap="butt" d="m381.07285 128.31659l-0.4763794 66.101746" fill-rule="evenodd"/><path stroke="#000000" stroke-width="8.0" stroke-linecap="butt" d="m381.2625 101.99727c7.2678833 0.052383423 13.1171875 5.986618 13.064819 13.254501c-0.052368164 7.2678757 -5.986603 13.1171875 -13.254486 13.064819c-7.2678833 -0.052383423 -13.117218 -5.986618 -13.064819 -13.254501c0.052368164 -7.2678757 5.986603 -13.117195 13.254486 -13.064819z" fill-rule="nonzero"/><path stroke="#000000" stroke-width="8.0" stroke-linecap="butt" d="m380.40677 220.73764c-7.267853 -0.052383423 -13.1171875 -5.986618 -13.064819 -13.254501c0.05239868 -7.2678833 5.9866333 -13.117203 13.254517 -13.064819c7.2678833 0.052383423 13.1171875 5.986618 13.064819 13.254501c-0.05239868 7.267868 -5.9866333 13.1171875 -13.254517 13.064819z" fill-rule="nonzero"/><path fill="#000000" fill-opacity="0.0" d="m363.87402 207.48557l118.11023 -1.7007904" fill-rule="evenodd"/><path stroke="#000000" stroke-width="8.0" stroke-linejoin="round" stroke-linecap="butt" d="m394.19086 207.04901l57.476562 -0.8276825" fill-rule="evenodd"/><path stroke="#000000" stroke-width="8.0" stroke-linecap="butt" d="m367.8736 207.42796c-0.104644775 -7.2673035 5.7018433 -13.243469 12.969147 -13.348114c7.267334 -0.104644775 13.243469 5.7018433 13.348114 12.969147c0.10467529 7.2673187 -5.7018127 13.243469 -12.969147 13.348129c-7.2673035 0.104644775 -13.243469 -5.7018433 -13.348114 -12.969162z" fill-rule="nonzero"/><path stroke="#000000" stroke-width="8.0" stroke-linecap="butt" d="m477.98468 205.84238c0.104644775 7.2673035 -5.7018433 13.243469 -12.969177 13.348114c-7.2673035 0.104644775 -13.243469 -5.7018433 -13.348114 -12.969147c-0.104644775 -7.2673187 5.7018433 -13.243469 12.969147 -13.348129c7.267334 -0.104644775 13.243469 5.7018433 13.348145 12.969162z" fill-rule="nonzero"/><path fill="#000000" fill-opacity="0.0" d="m221.29134 6.0l-0.91337585 126.74016" fill-rule="evenodd"/><path stroke="#000000" stroke-width="8.0" stroke-linejoin="round" stroke-linecap="butt" d="m221.07283 36.31921l-0.4763794 66.10173" fill-rule="evenodd"/><path stroke="#000000" stroke-width="8.0" stroke-linecap="butt" d="m221.26251 9.999896c7.2678833 0.0523777 13.117203 5.986618 13.064819 13.254497c-0.052383423 7.2678776 -5.986618 13.117197 -13.254501 13.064817c-7.267868 -0.052375793 -13.1171875 -5.986616 -13.064819 -13.254496c0.052383423 -7.2678776 5.986618 -13.117196 13.254501 -13.064818z" fill-rule="nonzero"/><path stroke="#000000" stroke-width="8.0" stroke-linecap="butt" d="m220.40678 128.74026c-7.2678833 -0.052383423 -13.117203 -5.986618 -13.064819 -13.254501c0.052368164 -7.2678757 5.986618 -13.117195 13.254486 -13.064819c7.2678833 0.052383423 13.117203 5.986618 13.064819 13.254501c-0.052368164 7.2678757 -5.986618 13.1171875 -13.254486 13.064819z" fill-rule="nonzero"/><path fill="#000000" fill-opacity="0.0" d="m203.24672 20.1916l125.95274 23.937008" fill-rule="evenodd"/><path stroke="#000000" stroke-width="8.0" stroke-linejoin="round" stroke-linecap="butt" d="m233.03357 25.852518l66.37906 12.615171" fill-rule="evenodd"/><path stroke="#000000" stroke-width="8.0" stroke-linecap="butt" d="m207.17638 20.938423c1.3569946 -7.1402636 8.245377 -11.828534 15.385651 -10.471545c7.140259 1.3569899 11.828537 8.245376 10.471542 15.38564c-1.3569946 7.1402645 -8.245377 11.828535 -15.385635 10.471544c-7.140274 -1.356987 -11.828537 -8.245375 -10.471558 -15.385639z" fill-rule="nonzero"/><path stroke="#000000" stroke-width="8.0" stroke-linecap="butt" d="m325.2698 43.381786c-1.3569946 7.1402626 -8.245361 11.828533 -15.38562 10.471546c-7.1402893 -1.3569908 -11.828552 -8.245377 -10.471558 -15.385639c1.3569946 -7.1402645 8.245361 -11.828537 15.385651 -10.471546c7.140259 1.3569889 11.828522 8.245373 10.471527 15.385639z" fill-rule="nonzero"/><path fill="#000000" fill-opacity="0.0" d="m252.0 104.25197l81.00787 116.53543" fill-rule="evenodd"/><path stroke="#000000" stroke-width="8.0" stroke-linejoin="round" stroke-linecap="butt" d="m269.306 129.14784l46.395874 66.74368" fill-rule="evenodd"/><path stroke="#000000" stroke-width="8.0" stroke-linecap="butt" d="m254.28311 107.536385c5.9678345 -4.1484528 14.168732 -2.6735535 18.31717 3.2942886c4.148468 5.967842 2.6735535 14.168716 -3.294281 18.31717c-5.9678345 4.1484528 -14.168716 2.6735535 -18.31717 -3.294281c-4.1484528 -5.967842 -2.6735535 -14.168724 3.294281 -18.317177z" fill-rule="nonzero"/><path stroke="#000000" stroke-width="8.0" stroke-linecap="butt" d="m330.72476 217.50299c-5.9678345 4.1484528 -14.168732 2.6735535 -18.31717 -3.2942963c-4.148468 -5.9678345 -2.6735535 -14.168716 3.294281 -18.31717c5.9678345 -4.1484528 14.168732 -2.6735535 18.31717 3.294281c4.148468 5.9678497 2.6735535 14.168716 -3.294281 18.317184z" fill-rule="nonzero"/><path fill="#000000" fill-opacity="0.0" d="m221.29134 97.997375l-0.91337585 126.74016" fill-rule="evenodd"/><path stroke="#000000" stroke-width="8.0" stroke-linejoin="round" stroke-linecap="butt" d="m221.07283 128.31659l-0.4763794 66.101746" fill-rule="evenodd"/><path stroke="#000000" stroke-width="8.0" stroke-linecap="butt" d="m221.26251 101.99727c7.2678833 0.052383423 13.117203 5.986618 13.064819 13.254501c-0.052383423 7.2678757 -5.986618 13.1171875 -13.254501 13.064819c-7.267868 -0.052383423 -13.1171875 -5.986618 -13.064819 -13.254501c0.052383423 -7.2678757 5.986618 -13.117195 13.254501 -13.064819z" fill-rule="nonzero"/><path stroke="#000000" stroke-width="8.0" stroke-linecap="butt" d="m220.40678 220.73764c-7.2678833 -0.052383423 -13.117203 -5.986618 -13.064819 -13.254501c0.052368164 -7.2678833 5.986618 -13.117203 13.254486 -13.064819c7.2678833 0.052383423 13.117203 5.986618 13.064819 13.254501c-0.052368164 7.267868 -5.986618 13.1171875 -13.254486 13.064819z" fill-rule="nonzero"/><path fill="#000000" fill-opacity="0.0" d="m246.90552 126.07874l84.031494 -43.433075" fill-rule="evenodd"/><path stroke="#000000" stroke-width="8.0" stroke-linejoin="round" stroke-linecap="butt" d="m273.8404 112.157l30.161743 -15.589584" fill-rule="evenodd"/><path stroke="#000000" stroke-width="8.0" stroke-linecap="butt" d="m250.45892 124.242096c-3.337204 -6.4566116 -0.8084259 -14.396072 5.6481934 -17.733276c6.456604 -3.337204 14.396057 -0.8084259 17.733276 5.6481857c3.3371887 6.4566116 0.80841064 14.396072 -5.6481934 17.733284c-6.456604 3.337204 -14.396072 0.8084259 -17.733276 -5.6481934z" fill-rule="nonzero"/><path stroke="#000000" stroke-width="8.0" stroke-linecap="butt" d="m327.3836 84.48231c3.3371887 6.4566116 0.80841064 14.396072 -5.6481934 17.733284c-6.456604 3.337204 -14.396088 0.8084259 -17.733276 -5.6481857c-3.3372192 -6.4566116 -0.80844116 -14.396072 5.6481934 -17.733276c6.456604 -3.3372116 14.396057 -0.80843353 17.733276 5.648178z" fill-rule="nonzero"/><path fill="#000000" fill-opacity="0.0" d="m93.291336 6.0l-0.9133835 126.74016" fill-rule="evenodd"/><path stroke="#000000" stroke-width="8.0" stroke-linejoin="round" stroke-linecap="butt" d="m93.07284 36.31921l-0.4763794 66.10173" fill-rule="evenodd"/><path stroke="#000000" stroke-width="8.0" stroke-linecap="butt" d="m93.26251 9.999896c7.2678757 0.0523777 13.117195 5.986618 13.064819 13.254497c-0.052375793 7.2678776 -5.986618 13.117197 -13.254494 13.064817c-7.2678833 -0.052375793 -13.117203 -5.986616 -13.064819 -13.254496c0.052375793 -7.2678776 5.986618 -13.117196 13.254494 -13.064818z" fill-rule="nonzero"/><path stroke="#000000" stroke-width="8.0" stroke-linecap="butt" d="m92.40678 128.74026c-7.2678757 -0.052383423 -13.117195 -5.986618 -13.064819 -13.254501c0.052383423 -7.2678757 5.986618 -13.117195 13.254501 -13.064819c7.2678757 0.052383423 13.117195 5.986618 13.064819 13.254501c-0.052383423 7.2678757 -5.986618 13.1171875 -13.254501 13.064819z" fill-rule="nonzero"/><path fill="#000000" fill-opacity="0.0" d="m75.874016 22.740158l101.13386 -0.50393677" fill-rule="evenodd"/><path stroke="#000000" stroke-width="8.0" stroke-linejoin="round" stroke-linecap="butt" d="m106.19364 22.58908l40.494606 -0.20178223" fill-rule="evenodd"/><path stroke="#000000" stroke-width="8.0" stroke-linecap="butt" d="m79.87396 22.720226c-0.036209106 -7.2679768 5.8262863 -13.189195 13.094269 -13.2254095c7.267975 -0.036215782 13.189194 5.8262854 13.22541 13.094262c0.036209106 7.2679768 -5.8262863 13.189196 -13.094269 13.225409c-7.267975 0.036216736 -13.189194 -5.8262844 -13.22541 -13.094261z" fill-rule="nonzero"/><path stroke="#000000" stroke-width="8.0" stroke-linecap="butt" d="m173.00792 22.256151c0.036224365 7.2679768 -5.8262787 13.189196 -13.094254 13.225409c-7.267975 0.036216736 -13.189194 -5.8262844 -13.225418 -13.094261c-0.036209106 -7.267976 5.826294 -13.189194 13.094269 -13.2254095c7.267975 -0.03621483 13.189194 5.8262863 13.225403 13.094262z" fill-rule="nonzero"/><path fill="#000000" fill-opacity="0.0" d="m8.0 21.251968l103.37008 1.6062984" fill-rule="evenodd"/><path stroke="#000000" stroke-width="8.0" stroke-linejoin="round" stroke-linecap="butt" d="m38.31634 21.723064l42.7374 0.6641083" fill-rule="evenodd"/><path stroke="#000000" stroke-width="8.0" stroke-linecap="butt" d="m11.999517 21.314117c0.11292648 -7.267189 6.0956936 -13.066865 13.362883 -12.953938c7.267189 0.11292744 13.066864 6.0956936 12.953938 13.362883c-0.11292648 7.267191 -6.0956917 13.066866 -13.362883 12.953939c-7.267189 -0.11292648 -13.066865 -6.0956936 -12.953938 -13.3628845z" fill-rule="nonzero"/><path stroke="#000000" stroke-width="8.0" stroke-linecap="butt" d="m107.37056 22.796118c-0.11292267 7.267189 -6.0956955 13.066866 -13.3628845 12.953939c-7.267189 -0.11292648 -13.066864 -6.0956955 -12.953934 -13.3628845c0.11292267 -7.267189 6.0956955 -13.066865 13.3628845 -12.9539385c7.267189 0.11292744 13.066864 6.0956945 12.953934 13.362884z" fill-rule="nonzero"/><path fill="#000000" fill-opacity="0.0" d="m93.291336 97.997375l-0.9133835 126.74016" fill-rule="evenodd"/><path stroke="#000000" stroke-width="8.0" stroke-linejoin="round" stroke-linecap="butt" d="m93.07284 128.31659l-0.4763794 66.101746" fill-rule="evenodd"/><path stroke="#000000" stroke-width="8.0" stroke-linecap="butt" d="m93.26251 101.99727c7.2678757 0.052383423 13.117195 5.986618 13.064819 13.254501c-0.052375793 7.2678757 -5.986618 13.1171875 -13.254494 13.064819c-7.2678833 -0.052383423 -13.117203 -5.986618 -13.064819 -13.254501c0.052375793 -7.2678757 5.986618 -13.117195 13.254494 -13.064819z" fill-rule="nonzero"/><path stroke="#000000" stroke-width="8.0" stroke-linecap="butt" d="m92.40678 220.73764c-7.2678757 -0.052383423 -13.117195 -5.986618 -13.064819 -13.254501c0.052383423 -7.2678833 5.986618 -13.117203 13.254501 -13.064819c7.2678757 0.052383423 13.117195 5.986618 13.064819 13.254501c-0.052383423 7.267868 -5.986618 13.1171875 -13.254501 13.064819z" fill-rule="nonzero"/><path fill="#000000" fill-opacity="0.0" d="m507.87402 22.740158l111.1181 0.062992096" fill-rule="evenodd"/><path stroke="#000000" stroke-width="8.0" stroke-linejoin="round" stroke-linecap="butt" d="m538.19403 22.757345l50.47809 0.028615952" fill-rule="evenodd"/><path stroke="#000000" stroke-width="8.0" stroke-linecap="butt" d="m511.87402 22.742426c0.004119873 -7.2680664 5.899353 -13.156658 13.167419 -13.152537c7.2680664 0.004119873 13.156677 5.899391 13.152588 13.167457c-0.0041503906 7.2680664 -5.899414 13.156656 -13.16748 13.152536c-7.2680664 -0.004119873 -13.156647 -5.899391 -13.152527 -13.167456z" fill-rule="nonzero"/><path stroke="#000000" stroke-width="8.0" stroke-linecap="butt" d="m614.9921 22.800882c-0.0041503906 7.2680664 -5.899414 13.156656 -13.16748 13.152536c-7.2680664 -0.004119873 -13.156616 -5.899391 -13.152527 -13.167458c0.0041503906 -7.2680655 5.899414 -13.156657 13.16748 -13.152536c7.2680664 0.004119873 13.156677 5.899391 13.152527 13.167458z" fill-rule="nonzero"/><path fill="#000000" fill-opacity="0.0" d="m507.87402 115.48819l90.14172 -1.7007904" fill-rule="evenodd"/><path stroke="#000000" stroke-width="8.0" stroke-linejoin="round" stroke-linecap="butt" d="m538.1886 114.916214l29.512573 -0.556839" fill-rule="evenodd"/><path stroke="#000000" stroke-width="8.0" stroke-linecap="butt" d="m511.8733 115.41273c-0.13708496 -7.2667694 5.642639 -13.268806 12.909424 -13.405914c7.2667847 -0.13710785 13.268799 5.6426315 13.405884 12.909401c0.137146 7.266777 -5.642578 13.268814 -12.909363 13.405914c-7.2667847 0.13711548 -13.268799 -5.642624 -13.405945 -12.909401z" fill-rule="nonzero"/><path stroke="#000000" stroke-width="8.0" stroke-linecap="butt" d="m594.0165 113.86286c0.13708496 7.2667694 -5.642639 13.268806 -12.909424 13.405914c-7.2667847 0.13710785 -13.268799 -5.642624 -13.405884 -12.909401c-0.137146 -7.266777 5.642578 -13.268806 12.909363 -13.405914c7.2667847 -0.13710785 13.268799 5.642624 13.405945 12.909401z" fill-rule="nonzero"/><path fill="#000000" fill-opacity="0.0" d="m507.87402 207.48557l118.11023 -1.7007904" fill-rule="evenodd"/><path stroke="#000000" stroke-width="8.0" stroke-linejoin="round" stroke-linecap="butt" d="m538.19086 207.04901l57.476562 -0.8276825" fill-rule="evenodd"/><path stroke="#000000" stroke-width="8.0" stroke-linecap="butt" d="m511.8736 207.42796c-0.104644775 -7.2673035 5.7018433 -13.243469 12.969177 -13.348114c7.267273 -0.104644775 13.243469 5.7018433 13.3480835 12.969147c0.10467529 7.2673187 -5.7018433 13.243469 -12.969116 13.348129c-7.267334 0.104644775 -13.2435 -5.7018433 -13.348145 -12.969162z" fill-rule="nonzero"/><path stroke="#000000" stroke-width="8.0" stroke-linecap="butt" d="m621.9847 205.84238c0.10461426 7.2673035 -5.7018433 13.243469 -12.969177 13.348114c-7.267273 0.104644775 -13.243469 -5.7018433 -13.3480835 -12.969147c-0.10467529 -7.2673187 5.7018433 -13.243469 12.969116 -13.348129c7.267334 -0.104644775 13.243469 5.7018433 13.348145 12.969162z" fill-rule="nonzero"/><path fill="#000000" fill-opacity="0.0" d="m311.34647 24.165354l5.952759 84.409454" fill-rule="evenodd"/><path stroke="#000000" stroke-width="8.0" stroke-linejoin="round" stroke-linecap="butt" d="m313.4794 54.41024l1.6868896 23.919678" fill-rule="evenodd"/><path stroke="#000000" stroke-width="8.0" stroke-linecap="butt" d="m311.62784 28.155445c7.250061 -0.5112915 13.541901 4.951561 14.053192 12.201618c0.5112915 7.250061 -4.9515686 13.541882 -12.20163 14.053173c-7.250061 0.5112915 -13.54187 -4.951561 -14.053162 -12.201622c-0.5112915 -7.250061 4.951538 -13.541878 12.201599 -14.053169z" fill-rule="nonzero"/><path stroke="#000000" stroke-width="8.0" stroke-linecap="butt" d="m317.01782 104.58472c-7.250061 0.5112915 -13.54187 -4.951561 -14.053162 -12.201622c-0.5112915 -7.250061 4.951538 -13.541885 12.201599 -14.053177c7.250061 -0.5112915 13.541901 4.951561 14.053192 12.201622c0.5112915 7.250061 -4.9515686 13.541878 -12.20163 14.053177z" fill-rule="nonzero"/></g></svg>